<?xml version="1.0" encoding="utf-8"?>
<!-- Generator: Adobe Illustrator 19.1.0, SVG Export Plug-In . SVG Version: 6.00 Build 0)  -->
<svg version="1.1" id="Layer_1" xmlns="http://www.w3.org/2000/svg" xmlns:xlink="http://www.w3.org/1999/xlink" x="0px" y="0px"
	 viewBox="-244 335.1 122.9 122.9" enable-background="new -244 335.1 122.9 122.9" xml:space="preserve">
<g id="Layer_x0020_1">
	<path d="M-181.6,370.7c0,1.6,2.1,2.7,3.5,3.1c1.4,0.5,1.4-0.2,2.1,1.1c1.1,2.1,2,2-0.4,3.2c-0.6,0.3-1.1,0.5-1.6,0.9
		c-1.1,0.7-2.3,1.4-2.3,2.9c0,1.2,1,1.6,1.6,2.2c0.3,0.3,1.5,1.9,1.5,2.3c0,0.5-0.4,1.6-0.6,2.1c-0.7,2.2-4.2,1.4-4.2,3.8
		c0,1.4,2.1,3.3,2.1,4.1c0,2.6-1.1,1-3.1,1.8c-1.5,0.6-2,2.4-1.3,3.8c0.1,0.3,0.2,0.3,0.3,0.6l0.9,1.8c0.7,1.2,0.8,1,0.1,2.1
		c-2-0.1-0.9-0.6-4.6-0.1c-3.2,0.4-1.7,3.9-1.3,5.8c-0.3,0.4-1.6,1.8-2.1,1.8c-0.3,0-0.8-0.4-1-0.6c-0.5-0.3-0.7-0.4-1.1-0.7
		c-1.6-0.9-4-2.6-4.8,1.5c-0.1,0.6-0.3,1.6-0.5,2.2c-0.3,1-0.5,1-1.4,1.2c-0.7-0.5-5.5-6.8-7.1-1.4c-0.2,0.7-0.3,1.1-0.6,1.7
		c-0.5,1.4-0.6,1.4-1.9,1.1c0.4-1.6-0.4-2.6-1.1-3.8c-0.3-0.5-0.5-0.9-0.9-1.4c-2.8-2.8-4.4,1.6-4.8,2.6c-1.3-0.3-2.4-1.1-3.6-1.6
		l-6.5-3.9c-2-1.6-4.3-4.5-5.2-5.2c-1.1-0.9-3.5-3.6-4.8-4.8c-0.1-0.1-0.2-0.2-0.4-0.3l-0.4-0.5c-0.7-0.8-3.3-2.8-3.3-0.5
		c0,1.8,1.7,5,2.5,6.7c0.8,1.7,1.6,2.9,2.5,4.4c0.3,0.5,0.6,1,1,1.5c0.3,0.5,0.6,0.9,1,1.3c2.7,3.2,4.5,5.6,8.1,8.3l2.8,1.8
		c1,0.7,1.8,1.3,2.8,1.8c1,0.6,1.9,1.1,2.9,1.7c0.6,0.3,0.9,0.5,1.5,0.8l6.3,3.2c1.3,0.6,7.2,3.7,8,3.8c0,1.8-0.9,2.7-1.1,4.5
		c-1.4-0.1-1.7-1.6-3.7-1.6c-3.5,0,0,5,0.7,6.4l1.8,3.5c0.2,0.5,0.3,0.9,0.6,1.4c0.9,2,2,3.9,3.6,5.5c0.2,0.2,0.2,0.2,0.4,0.5
		c0,0,0.1,0.1,0.1,0.1l0.3,0.3c0,0,0.1,0.1,0.2,0.2c1.1,1.3,1.9,1.9,3.3,1v-3.7c1.3-0.3,2.4,0.1,3.4,0.7c0.8,0.5,1.4,1.3,2.4,1.3
		c0.5,0,1.4-0.4,1.4-0.7c0-4.1-4.5-7.1-5.2-9.9c0.3-0.2,0.7-0.4,1.1-0.6c2-1.1,4-2.6,5.8-3.9c0.6-0.4,1.7-1.6,2.3-1.6
		c2.4,0,0.2,0.3,3.5-0.2c2.4-0.3,4-0.9,6.3-1.8c2-0.8,3.9-1.5,5.5-2.8c0.5-0.4,0.7-0.6,1.2-0.9c1.2-0.9,2.5-1.7,3.5-2.7
		c0.8-0.8,1.7-1.2,2.8-1.4l5.1-1c2.5-0.3,5.5-1.5,6.8-1.6c1.3-0.1,3.7,0.4,4.5,1.4c2.2,2.7,0.1,1.6,1.6,6.7c0.1,0.4,0.4,1.2,0.6,1.6
		c0.9,1.8,2.8,0.2,3.5-0.9c0.7-0.9,1.1-1.4,1.8-2.3c0.6-0.8,1.4-1.3,2.1-2l3-3c0.4-0.3,0.8-0.5,1.2-0.8c1.7-1,3.5-2.1,5.4-2.8
		c0.7-0.3,2.2-1,2.2-1.9c0-3-6.2-0.4-6.2-1.8c0-2,1.6-2.9,1.6-4.8c0-1-0.7-1.4-1.6-1.4c-1.3,0-4.1,2.2-5.3,2.9
		c-5.2,3.5-4.1,4.6-6.4,1.7c-2.4-3-5.8-5.2-8.9-7.4c-0.6-0.4-1.3-0.8-2-1.2c-0.7-0.4-1.6-0.7-1.9-1.5c0,0,0-0.1,0-0.1v-0.3
		c0.1-0.8,0.4-1.2,0.5-1.9c0.9-4,1.2-4.1,1.6-8.5c0.4-4.5-0.1-2.4,2-4.6c1.6-1.7,2.7-4.8,5.5-2.4c2,1.7,0,3.3,0,4.5
		c0,1,0.9,1.6,1.9,1.6c2.4,0,2.8-2.4,4.5-3.4c0.7-0.4,0.3,0.1,0.7-0.6c1.1-1.8-0.9-3.4-2-4.5c-1.1-1.1-2.1-1.8-3.3-2.7
		c-1.3-1-3-0.8-4.8-0.7c-1.6,0.1-2.6,1.4-3.9,2.1c0-4-0.5-6.8-1.2-10.5c-0.7-3.4-3.1-4,5.8-6.9l8.5-3c1.7-0.7,5-1.9,6.3-2.8
		c1.3-0.9,1.7-1.3,2.1-3c0.5-2.2,0.6-4.6,0.6-7c0-2.2-0.5-3.4-1.8-4.3c-1.7-1.1-3-0.7-4.7-1.3c-1.9-0.7-6.3-0.7-8.3-0.8
		c-0.9,0-2-0.3-2.8-0.3c-4.5-0.3-6,0.3-9.4-2.9c-1.8-1.7-5.8-4.1-8.2-4.1c-1.3,0-2.5,0.3-3.5,1c-2.1,1.5-3.7,3.6-5.8,5l-4.1,3
		c-1.9,1.4-3.7,4.4-4,6.8c-0.2,1.5-0.3,1.4-1.2,2.3c-4.5,4.5-0.2,4.5,0.9,5.9c0.3,0.4,0.4,0.8,0.6,1.2c0.4,1,1.8,2.6,1.5,3.6
		c-0.2,0.5-0.4,0.6-0.7,1C-181.2,369.5-181.6,370.2-181.6,370.7L-181.6,370.7z"/>
</g>
</svg>
