<?xml version="1.0" encoding="UTF-8" standalone="no"?>
<!-- Created with Inkscape (http://www.inkscape.org/) -->

<svg
   xmlns:dc="http://purl.org/dc/elements/1.1/"
   xmlns:cc="http://creativecommons.org/ns#"
   xmlns:rdf="http://www.w3.org/1999/02/22-rdf-syntax-ns#"
   xmlns:svg="http://www.w3.org/2000/svg"
   xmlns="http://www.w3.org/2000/svg"
   xmlns:sodipodi="http://sodipodi.sourceforge.net/DTD/sodipodi-0.dtd"
   xmlns:inkscape="http://www.inkscape.org/namespaces/inkscape"
   id="svg2"
   version="1.1"
   inkscape:version="0.48+devel r12701"
   width="557.80353"
   height="659.91736"
   viewBox="0 0 557.80353 659.91736"
   sodipodi:docname="T-Rex_stomping.svg">
  <title
     id="title4066">T-Rex stomping</title>
  <metadata
     id="metadata8">
    <rdf:RDF>
      <cc:Work
         rdf:about="">
        <dc:format>image/svg+xml</dc:format>
        <dc:type
           rdf:resource="http://purl.org/dc/dcmitype/StillImage" />
        <dc:title>T-Rex stomping</dc:title>
        <dc:date>12/02/2013</dc:date>
        <dc:creator>
          <cc:Agent>
            <dc:title>edited by Paul Sherman</dc:title>
          </cc:Agent>
        </dc:creator>
        <dc:rights>
          <cc:Agent>
            <dc:title>PD</dc:title>
          </cc:Agent>
        </dc:rights>
        <dc:publisher>
          <cc:Agent>
            <dc:title>WPClipart</dc:title>
          </cc:Agent>
        </dc:publisher>
        <dc:subject>
          <rdf:Bag>
            <rdf:li>T-rex</rdf:li>
            <rdf:li>tyrannosaurus</rdf:li>
            <rdf:li>dinosaur</rdf:li>
            <rdf:li>animal</rdf:li>
            <rdf:li>extinct</rdf:li>
          </rdf:Bag>
        </dc:subject>
        <cc:license
           rdf:resource="http://creativecommons.org/publicdomain/zero/1.0/" />
      </cc:Work>
      <cc:License
         rdf:about="http://creativecommons.org/publicdomain/zero/1.0/">
        <cc:permits
           rdf:resource="http://creativecommons.org/ns#Reproduction" />
        <cc:permits
           rdf:resource="http://creativecommons.org/ns#Distribution" />
        <cc:permits
           rdf:resource="http://creativecommons.org/ns#DerivativeWorks" />
      </cc:License>
    </rdf:RDF>
  </metadata>
  <defs
     id="defs6" />
  <sodipodi:namedview
     pagecolor="#ffffff"
     bordercolor="#666666"
     borderopacity="1"
     objecttolerance="10"
     gridtolerance="10"
     guidetolerance="10"
     inkscape:pageopacity="0"
     inkscape:pageshadow="2"
     inkscape:window-width="1263"
     inkscape:window-height="1007"
     id="namedview4"
     showgrid="false"
     fit-margin-top="4"
     fit-margin-left="4"
     fit-margin-right="4"
     fit-margin-bottom="4"
     inkscape:zoom="0.86"
     inkscape:cx="312.85067"
     inkscape:cy="334"
     inkscape:window-x="0"
     inkscape:window-y="0"
     inkscape:window-maximized="0"
     inkscape:current-layer="svg2" />
  <path
     style="fill:#000000"
     d="m 140.23964,654.04236 c 0,-1.35665 -1.39335,-1.875 -5.04015,-1.875 -6.04211,0 -12.21084,-2.42403 -15.46609,-6.07748 -3.08096,-3.45785 -8.22179,-3.40786 -12.71131,0.12363 -2.79914,2.2018 -5.39146,2.84949 -12.196242,3.04721 l -8.641549,0.25109 0.548589,-10.45206 c 0.46262,-8.81393 1.09629,-11.27968 4.0431,-15.73262 1.92198,-2.90431 4.01951,-7.02525 4.66118,-9.15765 0.64168,-2.13243 1.66308,-16.53337 2.2698,-32.00212 1.22136,-31.13979 1.04338,-30.32268 12.252712,-56.25 3.41817,-7.90625 7.98695,-18.59375 10.15286,-23.75 2.99472,-7.12936 6.02665,-11.58239 12.65756,-18.59036 4.79575,-5.06845 8.71954,-10.17353 8.71954,-11.34462 0,-2.91645 -4.32881,-6.64032 -12.43892,-10.7006 -9.94023,-4.97651 -18.06818,-10.95971 -35.686082,-26.26943 -4.8125,-4.182 -14.9375,-12.58315 -22.5,-18.66924 C 40.600105,392.23706 26.070667,374.53658 14.896259,348.40967 9.6381003,336.11556 3.9896443,314.08816 4.0000143,305.91736 c 0.0115,-9.0685 4.141271,-23.83085 15.0455477,-53.78219 13.040002,-35.81764 14.750422,-43.62564 12.685368,-57.90826 -0.845875,-5.85036 -3.823162,-17.78514 -6.616195,-26.52171 -6.691758,-20.93177 -8.577176,-30.28145 -8.603392,-42.66382 -0.02846,-13.4412 1.715482,-21.28832 7.50106,-33.752119 4.711087,-10.149035 8.789626,-16.526209 14.827646,-23.1844 6.742404,-7.434924 6.989724,-2.290168 0.399115,8.302421 -19.066741,30.644538 -18.234242,51.422918 3.646984,91.025238 4.119407,7.45563 9.126792,17.20415 11.127522,21.6634 6.923147,15.43039 7.878753,39.63279 2.613695,66.19644 -4.006025,20.21149 -4.534827,30.25634 -2.044852,38.84296 1.894945,6.53468 3.421902,8.65959 12.96502,18.0421 22.810825,22.42695 43.176397,27.20295 73.942107,17.34042 l 13.125,-4.20748 18.86074,-18.759 c 29.4511,-29.29225 28.32128,-27.5673 41.76105,-63.759 11.8741,-31.97558 21.73203,-54.12925 33.92971,-76.25 14.3021,-25.93719 26.00184,-59.51005 31.04764,-89.092407 1.80813,-10.600758 3.80845,-17.198496 8.0733,-26.628682 12.44562,-27.519038 22.25853,-40.141739 34.52551,-44.4113878 8.9249,-3.106403 35.3796,-3.241518 43.05205,-0.219883 2.75,1.08303 9.72138,3.695206 15.49194,5.8048348 6.50727,2.378957 13.23207,5.98846 17.70693,9.504107 6.10236,4.794284 8.07272,5.668419 12.77699,5.668419 6.97118,0 10.48438,2.643568 15.21383,11.447893 4.13244,7.692927 13.38901,19.705159 20.07565,26.052107 9.84481,9.34468 21.96583,27.70202 23.68817,35.875829 1.60071,7.59655 -7.19126,20.99268 -17.19926,26.20614 -5.0762,2.64435 -18.37925,3.25195 -18.37925,0.83945 0,-0.91928 -1.18518,-1.67142 -2.63374,-1.67142 -1.82755,0 -2.41349,-0.57394 -1.91422,-1.875 0.94922,-2.47366 -1.6574,-2.39218 -5.30968,0.16597 -2.89715,2.02924 -2.90896,2.01845 -2.05381,-1.875 l 0.86009,-3.91597 -6.34932,0 c -5.51598,0 -6.34932,-0.32813 -6.34932,-2.5 0,-1.68374 -0.83334,-2.5 -2.55226,-2.5 -3.04204,0 -8.02735,-4.3009 -6.96944,-6.01263 0.4093,-0.66226 -0.0934,-1.89921 -1.11706,-2.74879 -1.02368,-0.84958 -1.86124,-2.30885 -1.86124,-3.24282 0,-2.177969 -6.01804,-3.727719 -7.75,-1.995759 -2.0059,2.005899 -0.0614,7.630899 4.06401,11.756319 2.04249,2.04249 3.68599,5.02949 3.68599,6.69915 0,2.13983 1.40408,3.89953 4.84429,6.07123 9.14196,5.77107 12.58355,13.8512 8.86173,20.80547 -1.0823,2.0223 -0.87781,2.41783 1.25,2.41783 1.39919,0 2.54398,0.77344 2.54398,1.71875 0,0.94531 0.3293,3.36526 0.73179,5.37766 0.60042,3.00213 -0.21266,4.85373 -4.52969,10.31516 l -5.26146,6.65625 -6.54869,-0.67587 c -8.1851,-0.84479 -17.80911,-5.63415 -22.84354,-11.36806 -2.11835,-2.41266 -8.75536,-11.44879 -14.7489,-20.08028 -5.99355,-8.63149 -11.3816,-15.69361 -11.97344,-15.69361 -1.37843,0 -1.32765,3.61331 0.19329,13.75 0.67051,4.46875 1.74889,14.3797 2.3964,22.02435 0.87457,10.32521 2.14049,16.43238 4.92301,23.75 2.06015,5.41785 4.40474,12.38091 5.21022,15.47346 1.01548,3.8989 3.28553,7.44387 7.40417,11.5625 6.67388,6.67387 8.48533,7.03224 20.67184,4.08969 11.21625,-2.70827 14.35376,-2.36771 29.69352,3.22306 19.73664,7.19328 24.31319,10.52197 15.61898,11.36024 l -4.0625,0.3917 0.33997,8.4375 c 0.23049,5.72009 -0.12275,8.4375 -1.09678,8.4375 -0.79023,0 -6.07177,-3.93504 -11.73675,-8.74454 -15.6726,-13.30582 -21.6036,-14.99295 -32.43563,-9.22661 -5.34152,2.84351 -7.12432,3.17799 -13.42756,2.51916 -3.99754,-0.41782 -7.26825,-0.2763 -7.26825,0.3145 0,0.59079 1.12407,7.75404 2.49795,15.91833 1.78684,10.61828 2.76544,24.40275 3.4375,48.42043 l 0.93955,33.57629 9.375,5.01215 c 18.54836,9.9165 29.22315,16.72079 38.59351,24.60014 13.94214,11.72369 31.04699,29.8282 34.05835,36.04885 2.44048,5.04136 2.51948,6.11964 1.14834,15.67504 -2.50508,17.45771 -5.97669,31.58301 -13.84455,56.33056 -4.1661,13.10406 -7.89336,26.15019 -8.28279,28.99139 -0.70045,5.11035 -0.61817,5.24205 7.66286,12.26736 4.604,3.90586 10.54448,8.21043 13.20107,9.56571 l 4.83013,2.46417 8.46178,-5.79317 c 4.65396,-3.18622 10.29084,-6.55738 12.52639,-7.49145 5.41565,-2.26281 12.2116,-2.15281 14.18887,0.22967 1.92121,2.31491 0.55425,3.94658 -3.79396,4.52867 -2.35048,0.31466 -3.22303,1.27033 -3.52053,3.85585 -0.54206,4.71099 1.3862,4.50633 16.56047,-1.75765 9.92038,-4.09516 14.63624,-5.32017 22.27256,-5.78561 11.89093,-0.72475 12.93189,1.28314 3.10666,5.99241 -5.12437,2.45614 -6.62662,3.84526 -6.92429,6.40281 -0.46863,4.02684 1.08366,4.73922 13.48163,6.18697 9.01646,1.05286 14.82262,3.67095 16.00453,7.21665 0.36262,1.08788 -0.44827,1.29953 -2.75796,0.71985 -4.48228,-1.12499 -10.59236,1.63102 -11.48297,5.17952 -1.1956,4.76365 -6.03889,6.85806 -19.0108,8.22094 -9.8459,1.03444 -14.19434,2.22474 -23.30619,6.37957 -11.15175,5.085 -11.26556,5.107 -25.42582,4.91262 -7.82318,-0.10738 -16.35196,-0.76827 -18.95288,-1.46862 -2.60092,-0.70036 -9.09297,-4.64581 -14.4268,-8.76767 -8.00695,-6.1876 -10.53851,-7.49429 -14.51932,-7.49429 -6.41218,0 -16.88932,4.09255 -21.30334,8.32145 -4.87609,4.67159 -6.3134,2.82292 -7.20254,-9.26383 -0.62026,-8.43158 -1.26753,-10.50022 -4.77991,-15.27616 -5.05863,-6.87845 -5.24416,-12.24494 -0.84376,-24.40646 4.80602,-13.28261 5.65654,-21.52268 4.17475,-40.44666 -0.71906,-9.18318 -1.81236,-18.02488 -2.42958,-19.64824 -1.10352,-2.90251 -1.21122,-2.92005 -6.48055,-1.0549 -12.36512,4.37682 -48.99965,11.51147 -69.78853,13.59146 -17.33107,1.73403 -24.20465,4.23544 -53.06983,19.31289 -17.30364,9.0384 -25.0751,12.09312 -36.875,14.49445 -10.55636,2.14825 -11.2173,2.70971 -19.05959,16.19101 -8.94108,15.37016 -11.57836,17.91346 -25.31541,24.41329 -21.0399,9.95525 -49.375,33.17447 -49.375,40.46039 0,1.67517 2.27491,8.7848 5.05538,15.79916 2.78045,7.01435 5.39757,14.52722 5.81583,16.69526 l 0.76047,3.94189 -2.69084,-2.38124 c -2.67787,-2.36975 -2.69084,-2.36498 -2.69084,0.9873 0,4.40903 3.8462,11.76575 8.42386,16.11253 2.55696,2.42798 5.7442,3.80896 10.62398,4.60316 12.66971,2.06205 22.20606,9.03421 24.09021,17.61269 1.13605,5.17235 -0.0145,5.96211 -3.67545,2.52286 -3.07306,-2.887 -5.7126,-2.62248 -5.7126,0.57249 0,0.96648 -1.20701,2.40322 -2.68226,3.19276 -2.52312,1.35032 -6.42629,1.1746 -18.74984,-0.84411 -4.5249,-0.74124 -4.5632,-0.71033 -5.42236,4.37502 -0.5354,3.16895 -1.53824,5.12154 -2.63042,5.12154 -0.97081,0 -1.76512,-0.84375 -1.76512,-1.875 z"
     id="path4064"
     inkscape:connector-curvature="0" />
</svg>
