<?xml version="1.0" ?><!DOCTYPE svg  PUBLIC '-//W3C//DTD SVG 1.1//EN'  'http://www.w3.org/Graphics/SVG/1.1/DTD/svg11.dtd'><svg height="43.3492mm" style="shape-rendering:geometricPrecision; text-rendering:geometricPrecision; image-rendering:optimizeQuality; fill-rule:evenodd; clip-rule:evenodd" version="1.1" viewBox="0 0 4335 4335" width="43.3492mm" xml:space="preserve" xmlns="http://www.w3.org/2000/svg" xmlns:xlink="http://www.w3.org/1999/xlink"><defs><style type="text/css">
   <![CDATA[
    .fil0 {fill:black}
   ]]>
  </style></defs><g id="Layer_x0020_1"><path class="fil0" d="M2200 1254c0,58 74,94 122,110 50,17 49,-6 73,40 38,75 71,72 -13,113 -20,9 -39,18 -58,30 -39,25 -80,50 -80,102 0,44 34,55 55,77 10,10 52,68 52,80 0,16 -15,55 -21,73 -26,76 -148,50 -148,134 0,51 75,115 75,144 0,91 -38,34 -111,65 -52,22 -72,85 -46,135 5,10 6,9 11,20l30 64c24,41 27,36 3,73 -69,-2 -33,-20 -162,-5 -113,13 -61,137 -45,206 -9,14 -57,63 -75,63 -11,0 -27,-14 -36,-20 -16,-11 -23,-14 -40,-23 -56,-32 -140,-90 -170,54 -4,21 -11,55 -17,77 -9,34 -17,36 -51,43 -26,-17 -195,-241 -251,-50 -7,24 -12,38 -20,61 -18,48 -22,50 -67,39 13,-56 -14,-92 -40,-135 -11,-19 -18,-33 -33,-49 -99,-99 -154,58 -171,90 -45,-11 -86,-38 -126,-56l-228 -136c-69,-56 -153,-159 -185,-185 -40,-31 -123,-127 -168,-171 -5,-5 -7,-6 -13,-12l-15 -16c-26,-27 -118,-99 -118,-19 0,64 60,176 88,238 27,60 56,102 88,156 11,18 22,34 35,53 12,18 22,30 35,46 94,113 160,198 284,293l99 64c34,24 65,45 98,65 35,21 67,38 104,59 20,12 33,18 53,29l221 112c46,21 253,131 281,133 0,64 -33,97 -38,157 -49,-4 -61,-56 -132,-56 -125,0 0,176 25,226l63 125c7,17 11,32 20,49 33,69 72,139 126,194 7,7 8,8 15,16 1,1 2,2 3,3l9 10c1,1 5,5 6,7 39,46 66,68 117,34l0 -132c46,-11 86,2 121,23 29,17 51,46 86,46 16,0 50,-14 50,-25 0,-143 -158,-251 -182,-351 12,-8 25,-14 40,-22 72,-39 140,-90 206,-139 20,-15 59,-58 80,-58 85,0 8,10 125,-7 84,-12 141,-30 223,-65 69,-29 137,-52 195,-100 16,-13 25,-20 42,-33 41,-31 88,-59 124,-95 27,-27 61,-41 100,-50l179 -35c88,-11 193,-53 239,-56 47,-3 130,14 159,50 78,95 5,56 58,237 4,15 14,42 20,55 31,63 98,6 124,-31 23,-33 39,-51 63,-82 22,-28 49,-46 74,-70l107 -107c13,-10 27,-19 41,-28 60,-37 123,-74 189,-100 25,-10 76,-35 76,-68 0,-107 -219,-13 -219,-63 0,-69 56,-101 56,-169 0,-34 -23,-50 -56,-50 -45,0 -145,76 -186,103 -183,122 -145,161 -227,59 -85,-106 -205,-185 -314,-262 -21,-15 -47,-27 -71,-42 -24,-14 -56,-25 -67,-52 0,-1 -1,-4 -1,-3l0 -11c3,-27 14,-42 19,-68 30,-141 44,-146 57,-300 14,-157 -4,-84 71,-161 57,-59 94,-171 194,-85 69,59 1,115 0,159 -1,37 32,56 67,56 83,0 98,-86 157,-119 24,-13 10,2 23,-21 39,-63 -30,-121 -69,-160 -39,-39 -75,-63 -117,-96 -47,-36 -106,-29 -169,-25 -58,4 -91,50 -138,75 0,-142 -16,-239 -44,-370 -26,-119 -110,-141 203,-243l300 -107c61,-24 177,-68 222,-98 45,-30 60,-47 75,-107 19,-78 21,-161 21,-248 0,-77 -16,-120 -63,-150 -60,-39 -105,-26 -166,-47 -66,-23 -221,-26 -292,-28 -33,-1 -69,-10 -100,-12 -158,-12 -213,12 -330,-102 -62,-60 -206,-143 -290,-143 -47,0 -87,10 -122,35 -73,53 -132,128 -205,177l-145 106c-66,49 -129,154 -141,241 -8,54 -12,51 -43,82 -159,158 -6,160 33,208 10,13 15,29 21,42 14,35 63,90 52,126 -6,18 -15,20 -26,36 -7,11 -19,33 -19,50zm826 -767c72,0 131,43 131,96 0,53 -59,96 -131,96 -72,0 -131,-43 -131,-96 0,-53 59,-96 131,-96z"/></g></svg>