<?xml version="1.0" encoding="utf-8"?>
<!-- Generator: Adobe Illustrator 19.0.0, SVG Export Plug-In . SVG Version: 6.00 Build 0)  -->
<svg version="1.1" id="Layer_1" xmlns="http://www.w3.org/2000/svg" xmlns:xlink="http://www.w3.org/1999/xlink" x="0px" y="0px"
	 viewBox="208.5 177.9 1018.9 436.2" style="enable-background:new 208.5 177.9 1018.9 436.2;" xml:space="preserve">
<path d="M967,285.4C898.4,267.1,819.5,254,734.4,254c-54.4,0-102.7,4.6-145.1,11.7l-127.6-87.8L208.6,178l109.3,116.4h158.9
	c-86.2,30.1-127.2,66.1-127.2,66.1l0,71.1c0,0,43.5,36,130.4,66.2l-162.2-0.1L208.5,614.1l253.1,0l128.3-88.3
	c42.5,7.5,90.7,12.2,144.5,12.2c85.1,0,163.9-13.1,232.6-31.4c-22.1-33.4-36-70.4-36.1-110.6C931,355.8,944.8,318.7,967,285.4z
	 M1031.4,304.8c-24.2,30.2-37,61.1-37,91.1c-0.1,30.1,12.7,60.9,37,91.2c120.4-40.7,196-91.1,196-91.1S1151.9,345.6,1031.4,304.8z"
	/>
</svg>
